<svg xmlns="http://www.w3.org/2000/svg" viewBox="0 0 32 21"><defs><style>.cls-1{fill:none;stroke:#000;stroke-linecap:round;stroke-linejoin:round;}</style></defs><g id="Layer_2" data-name="Layer 2"><g id="Layer_1-2" data-name="Layer 1"><path class="cls-1" d="M10.27,16.28A5.81,5.81,0,0,1,10,14.5a6,6,0,0,1,12,0,5.81,5.81,0,0,1-.27,1.78"/><line class="cls-1" x1="16" y1="0.5" x2="16" y2="5.5"/><line class="cls-1" x1="6.1" y1="4.6" x2="9.64" y2="8.14"/><line class="cls-1" x1="2" y1="14.5" x2="7" y2="14.5"/><line class="cls-1" x1="30" y1="14.5" x2="25" y2="14.5"/><line class="cls-1" x1="25.9" y1="4.6" x2="22.36" y2="8.14"/><line class="cls-1" x1="19.5" y1="16.5" x2="31.5" y2="16.5"/><line class="cls-1" x1="0.5" y1="16.5" x2="12.5" y2="16.5"/><polyline class="cls-1" points="18 17 16 19 14 17"/><line class="cls-1" x1="16" y1="13.61" x2="16" y2="19"/><line class="cls-1" x1="19.61" y1="18.5" x2="27" y2="18.5"/><line class="cls-1" x1="5" y1="18.5" x2="12.39" y2="18.5"/><line class="cls-1" x1="24" y1="20.5" x2="8" y2="20.5"/></g></g></svg>